<?xml version="1.0" standalone="no"?>
<svg xmlns="http://www.w3.org/2000/svg" version="1.1" xmlns:xlink="http://www.w3.org/1999/xlink" width="512" height="512" x="0" y="0" viewBox="0 0 1707 1707" style="enable-background:new 0 0 512 512" xml:space="preserve" fill-rule="evenodd" class=""><g><g fill="#000002"><path d="M389 605c-21 0-43-3-64-8-63-18-117-58-150-115-32-57-41-124-24-187 14-53 44-99 88-132 8-7 20-7 29-1 9 5 14 16 12 27-21 101 41 200 140 227 17 5 34 7 51 7 42 0 84-15 118-41 9-6 21-7 30-1s14 16 12 27c-1 5-3 9-4 14-29 108-127 183-238 183zM384 1329c-5 0-9-2-13-4l-159-91c-12-8-16-23-9-36 7-12 23-16 35-9l146 84 145-84c12-7 28-3 35 9 7 13 3 28-9 36l-159 91c-4 2-8 4-12 4z" fill="#ffffff" opacity="1" data-original="#000002" class=""/><path d="M602 1549c-4 0-8-1-12-3l-206-119-206 119c-13 7-29 2-36-10s-3-28 10-35l180-104-180-104c-13-7-17-23-10-36 7-12 23-16 36-9l206 119 206-119c12-7 28-3 35 9 7 13 3 29-10 36l-180 104 180 104c13 7 17 23 10 35-5 8-14 13-23 13z" fill="#ffffff" opacity="1" data-original="#000002" class=""/><path d="M1681 1549H26c-14 0-26-12-26-26s12-26 26-26h1655c14 0 26 12 26 26s-12 26-26 26zM1456 1180c-5 0-10-2-15-5l-337-236c-8-6-12-16-10-26 1-4 71-356-123-463-12-7-16-21-11-33 22-50 67-83 125-93 15-3 29-4 43-4 154 0 203 154 235 255 3 10 6 19 9 27 47 143 131 442 110 557-2 8-8 16-16 19-3 1-7 2-10 2z" fill="#ffffff" opacity="1" data-original="#000002" class=""/><path d="M1393 1531H846c-1 0-3 1-4 1-53 0-99-51-105-118-7-73 39-168 193-190 52-7 91-23 103-42 1-2 3-5 4-8-60-9-133-35-221-83-11-6-16-20-11-33l60-145c5-13 19-19 31-15l161 50c24-18 7-4 32 13l334 234-4 22c-33 0-65 18-85 45-17 22-24 48-25 74-37 6-70 2-113-5-50-8-90-13-141-4-7 1-12 8-11 15 2 7 8 11 15 10 48-8 86-4 133 4 27 4 53 8 80 8 13 0 26-1 39-3 1 10 2 19 5 28 13 52 38 106 77 142zm-493-82c3 0 6-1 9-3 5-5 5-13 0-18-10-10-21-24-19-39 1-15 14-27 26-35 5-4 7-12 3-18-4-5-12-7-18-3-18 13-34 31-36 54s10 43 26 59c2 2 6 3 9 3z" fill="#ffffff" opacity="1" data-original="#000002" class=""/><path d="M840 1067c-3 0-5 0-8-1-55-17-104-55-143-113-22-33-48-129-11-156 14-11 39-14 72 29 9 13 17 24 24 35 4-27 26-45 52-43 28 1 48 23 48 50-1 4-1 7-1 11-1 32 0 40 15 46 13 6 19 21 14 34-6 13-21 19-34 13-40-17-46-49-47-76-4 20-12 35-29 40-25 6-40-15-59-45-7-9-14-19-22-30 3 21 10 47 21 63 32 48 71 79 115 93 14 4 22 18 18 32-4 11-14 18-25 18zM1048 720c-6 0-11 0-17-2-27-8-43-32-63-74-29-61-49-157-7-230 7-12 23-16 36-9 12 7 16 23 9 35-29 51-16 130 8 181 15 30 25 45 32 47 9 3 38-15 47-20 12-8 28-4 36 8 7 13 3 28-9 36-26 15-49 28-72 28zM1503 1549c-121 0-158-151-161-166-12-41-7-78 13-106 18-24 47-36 75-33 48 7 54 46 59 72 2 12 4 24 9 35 20 46 32 63 42 77 7 11 13 21 21 38 9 18 8 39-1 56-8 14-21 23-37 26-7 1-13 1-20 1z" fill="#ffffff" opacity="1" data-original="#000002" class=""/></g></g></svg>