<svg width="303" height="303" viewBox="0 0 303 303" fill="none" xmlns="http://www.w3.org/2000/svg">
<path d="M281.837 47.4321V122.557C281.837 136.524 270.516 147.848 256.546 147.848H242.716V179.717C242.716 185.998 235.216 189.249 230.63 184.953L191.038 147.848H137.054C123.087 147.848 111.763 136.527 111.763 122.557V47.4321C111.763 33.4657 123.084 22.1411 137.054 22.1411H256.543C270.513 22.1411 281.837 33.4657 281.837 47.4321Z" fill="#0DB59D"/>
<path d="M235.541 195.435C231.625 195.435 227.764 193.967 224.791 191.168L187.661 156.386H137.057C118.404 156.386 103.228 141.214 103.228 122.554V47.4354C103.228 28.7756 118.4 13.6035 137.057 13.6035H256.549C275.203 13.6035 290.375 28.7788 290.375 47.4354V122.551C290.375 141.211 275.203 156.383 256.546 156.383H251.253V179.711C251.253 185.979 247.535 191.651 241.781 194.135C239.774 195.003 237.65 195.435 235.541 195.435ZM137.057 30.6788C127.819 30.6788 120.304 38.2002 120.304 47.4354V122.551C120.304 131.789 127.819 139.307 137.057 139.307H191.038C193.207 139.307 195.293 140.125 196.874 141.608L234.178 176.573V147.845C234.178 143.127 238 139.307 242.716 139.307H256.546C265.785 139.307 273.3 131.786 273.3 122.551V47.4354C273.3 38.197 265.785 30.6788 256.546 30.6788H137.057Z" fill="#0D5466"/>
<path d="M67.4648 289.396C65.3344 289.396 63.1913 288.964 61.1618 288.08C55.3417 285.545 51.7246 280.009 51.7246 273.656V250.262H46.4316C27.7908 250.262 12.625 235.086 12.625 216.446V141.327C12.625 122.686 27.7908 107.511 46.4316 107.511H111.829C116.545 107.511 120.367 111.33 120.367 116.048V122.535C120.367 131.773 127.875 139.275 137.098 139.275H191.054C193.248 139.275 195.356 140.124 196.941 141.627C198.632 143.243 199.765 145.645 199.765 147.98V216.446C199.765 235.086 184.596 250.262 165.949 250.262H115.383L78.2308 285.16C75.2292 287.944 71.3691 289.396 67.4648 289.396ZM46.4316 124.586C37.2059 124.586 29.7003 132.088 29.7003 141.327V216.442C29.7003 225.681 37.209 233.183 46.4316 233.183H60.2623C64.9777 233.183 68.7999 237.002 68.7999 241.721V270.601L106.157 235.5C107.742 234.016 109.831 233.183 112.003 233.183H165.952C175.181 233.183 182.693 225.681 182.693 216.442V156.347H137.098C119.145 156.347 104.418 142.274 103.355 124.583L46.4316 124.586Z" fill="#0D5466"/>
<path d="M230.949 75.9327H162.651C157.936 75.9327 154.113 72.1137 154.113 67.3951C154.113 62.6765 157.936 58.8574 162.651 58.8574H230.949C235.664 58.8574 239.487 62.6765 239.487 67.3951C239.487 72.1137 235.661 75.9327 230.949 75.9327Z" fill="#0D5466"/>
<path d="M230.949 110.081H162.651C157.936 110.081 154.113 106.262 154.113 101.543C154.113 96.8244 157.936 93.0054 162.651 93.0054H230.949C235.664 93.0054 239.487 96.8244 239.487 101.543C239.487 106.262 235.661 110.081 230.949 110.081Z" fill="#0D5466"/>
<path d="M75.4659 186.916C73.2439 186.916 71.025 186.048 69.4879 184.347C68.6326 183.662 67.954 182.646 67.6131 181.614C67.1018 180.597 66.9282 179.562 66.9282 178.378C66.9282 177.179 67.0987 176.16 67.6131 175.127C67.954 174.111 68.6358 173.076 69.4879 172.394C72.5653 169.159 78.3665 169.159 81.4407 172.394C82.296 173.079 82.9778 174.111 83.3218 175.127C83.8331 176.163 84.0067 177.179 84.0067 178.378C84.0067 180.597 83.1514 182.813 81.4438 184.347C79.9067 186.048 77.6847 186.916 75.4659 186.916Z" fill="#0D5466"/>
<path d="M109.613 186.916C107.391 186.916 105.173 186.048 103.635 184.347C101.931 182.813 101.076 180.594 101.076 178.378C101.076 177.179 101.246 176.159 101.761 175.127C102.102 174.111 102.783 173.076 103.635 172.394C106.028 170.011 109.784 169.159 112.855 170.526C113.881 171.024 114.906 171.542 115.585 172.394C116.44 173.079 117.122 174.111 117.466 175.127C117.977 176.163 118.151 177.179 118.151 178.378C118.151 179.562 117.981 180.597 117.466 181.613C117.125 182.649 116.44 183.665 115.585 184.347C114.906 185.196 113.881 185.881 112.855 186.231C111.832 186.733 110.81 186.916 109.613 186.916Z" fill="#0D5466"/>
<path d="M143.764 186.916C141.542 186.916 139.323 186.048 137.786 184.347C136.931 183.662 136.252 182.646 135.911 181.613C135.4 180.597 135.226 179.562 135.226 178.378C135.226 177.179 135.397 176.159 135.911 175.127C136.252 174.111 136.934 173.076 137.786 172.394C140.008 170.011 143.764 169.159 147.005 170.526C148.031 171.024 149.057 171.542 149.736 172.394C150.591 173.079 151.273 174.111 151.617 175.127C152.128 176.163 152.302 177.179 152.302 178.378C152.302 179.562 152.131 180.597 151.617 181.613C151.276 182.649 150.591 183.665 149.736 184.347C148.202 186.048 145.98 186.916 143.764 186.916Z" fill="#0D5466"/>
<path d="M75.4627 84.4708H58.3874C53.672 84.4708 49.8497 80.6518 49.8497 75.9332C49.8497 71.2146 53.672 67.3955 58.3874 67.3955H75.4627C80.1781 67.3955 84.0004 71.2146 84.0004 75.9332C83.9972 80.6518 80.175 84.4708 75.4627 84.4708Z" fill="#0D5466"/>
<path d="M246.206 238.139H229.131C224.416 238.139 220.594 234.32 220.594 229.601C220.594 224.883 224.416 221.063 229.131 221.063H246.206C250.922 221.063 254.744 224.883 254.744 229.601C254.741 234.32 250.919 238.139 246.206 238.139Z" fill="#0D5466"/>
</svg>
