<svg width="91" height="91" viewBox="0 0 91 91" fill="none" xmlns="http://www.w3.org/2000/svg">
<path d="M55.8366 13.9451C55.8366 19.7046 51.1676 24.3735 45.4082 24.3735C39.6488 24.3735 34.9798 19.7046 34.9798 13.9451C34.9798 8.18568 39.6488 3.5167 45.4082 3.5167C51.1676 3.5167 55.8366 8.18568 55.8366 13.9451Z" stroke="#129786" stroke-width="7.03331" stroke-miterlimit="10" stroke-linecap="round"/>
<path d="M8.73314 59.8367C13.7211 56.9569 20.0989 58.666 22.9787 63.6537C25.8583 68.6416 24.1495 75.0194 19.1616 77.8993C14.1738 80.7789 7.7958 79.07 4.91616 74.0821C2.03636 69.0944 3.7454 62.7164 8.73314 59.8367Z" stroke="#0D5466" stroke-width="7.03331" stroke-miterlimit="10" stroke-linecap="round"/>
<path d="M71.6548 77.8992C66.6669 75.0195 64.958 68.6415 67.8377 63.6538C70.7175 58.6659 77.0953 56.957 82.0832 59.8366C87.071 62.7164 88.78 69.0943 85.9002 74.0822C83.0206 79.0699 76.6426 80.779 71.6548 77.8992Z" stroke="#0D5466" stroke-width="7.03331" stroke-miterlimit="10" stroke-linecap="round"/>
<path d="M8.96477 48.5796C9.62158 36.6497 16.0076 26.2466 25.4177 20.0753" stroke="#0D5466" stroke-width="7.03331" stroke-miterlimit="10" stroke-linecap="round"/>
<path d="M65.3987 20.0753C74.8089 26.2468 81.1948 36.6498 81.8516 48.5796" stroke="#0D5466" stroke-width="7.03331" stroke-miterlimit="10" stroke-linecap="round"/>
<path d="M61.8598 83.3824C56.9163 85.8828 51.3267 87.2915 45.4082 87.2915C39.4896 87.2915 33.9001 85.8828 28.9565 83.3824" stroke="#129786" stroke-width="7.03331" stroke-miterlimit="10" stroke-linecap="round"/>
</svg>
