<?xml version="1.0" encoding="UTF-8"?>
<svg id="eaad4fca-6b02-409d-8ea2-766403955a42" xmlns="http://www.w3.org/2000/svg" version="1.1" viewBox="0 0 512 512">
  <!-- Generator: Adobe Illustrator 30.2.1, SVG Export Plug-In . SVG Version: 2.1.1 Build 1)  -->
  <defs>
    <style>
      .st0 {
        fill: #fff;
      }
    </style>
  </defs>
  <path class="st0" d="M324,253.5c46.3.4,99.3-21.9,101.6-22.9,3.5-1.5,5.3-5.5,4.2-9.1-7.8-25-28.5-92.4-35.8-116.1-1.4-4-5.8-6.2-9.8-4.8-.5.2-1.1.4-1.5.7-19.4,9-40.7,13.2-62.1,12.3-19.9-1-39.5,4.2-56.4,14.7.2,8.1,0,148.6,0,148.6,16.3-15.2,37.7-23.6,60-23.5h0Z"/>
  <path class="st0" d="M86.4,230.6c2.2,1,55.1,23.2,101.6,22.9,22.2,0,43.7,8.4,60,23.5v-148.5c-2-1.2-4.2-2.5-6.6-3.7-15.3-8.2-32.5-12-49.8-11.1-21.4.9-42.7-3.4-62.1-12.3-2.2-1.3-4.8-1.5-7.1-.6-4,1.3-4.8,6.7-5.9,10.1-6.2,20.2-27.6,89.3-34.2,110.6-1.1,3.7.6,7.6,4.2,9.1h0Z"/>
  <path class="st0" d="M479.6,249.8l-45.4-146.1c-1.3-4.2-5.9-6.6-10.1-5.2-.2,0-.4.1-.5.2l-13.4,5.5,34.8,112.6c3.6,11.5-2.1,23.8-13.1,28.5-2.3,1-57.3,24.8-108,24.2-12.8-.1-25.5,3.3-36.5,9.9-14.2,8.2-12.4,12.4-23.4,17-9.1,3.3-19.2.7-25.6-6.5-13.6-12.8-31.5-20.1-50.1-20.5-50.7.4-105.8-23.2-108.1-24.2-11-4.7-16.7-17-13.1-28.5l34.8-112.6-13.4-5.5c-4.1-1.7-8.8.3-10.4,4.4,0,.2-.1.4-.2.6l-45.4,146.1c-1.3,4.2,1.2,8.7,5.4,10,0,0,0,0,.1,0,0,0,174.3,49.4,185.6,52.5,7.7,2.1,8.8,7.8,11.8,13.9,3.2,4.9,12.9,2.6,18.2,3.1h17.1c3.7,0,7-2.6,7.8-6.2,1.2-5.2,5.1-9.3,10.2-10.8,44.3-12.6,140.2-39.7,185.6-52.5,4.3-1.2,6.7-5.6,5.6-9.9,0,0,0,0,0-.1h0Z"/>
  <path class="st0" d="M221.5,334.7c-1.4-2.2-2.5-4.7-3.2-7.3-11.7-3.3-54.7-15.4-65.6-18.6v24.6c0,2-.9,4-2.3,5.4l-36.6,35c-7.7,6.3-6.7,18.2-6.6,27.1.1,7.2,6,12.9,13.2,12.8,2.3,0,4.5-.7,6.5-1.9l108.9-67.3c-5.8-1.5-10.9-5-14.2-10Z"/>
  <path class="st0" d="M361.6,339c-1.5-1.4-2.3-3.4-2.3-5.4v-24.6l-16,4.6-49.6,14c-2.2,8.5-8.9,15.1-17.4,17.3l108.8,67.3c6.2,3.7,14.2,1.7,17.9-4.5,1.2-2,1.8-4.2,1.9-6.5,0-9,1.1-20.8-6.6-27.1l-36.6-35Z"/>
</svg>