<svg width="38" height="38" viewBox="0 0 38 38" fill="none" xmlns="http://www.w3.org/2000/svg">
<path opacity="0.3" d="M8.04334 12.6667H12.7142C13.2208 10.6875 13.9492 8.7875 14.8992 7.03C11.9858 8.0275 9.56334 10.0383 8.04334 12.6667ZM11.875 19C11.875 17.9233 11.97 16.8783 12.0967 15.8333H6.745C6.49167 16.8467 6.33334 17.9075 6.33334 19C6.33334 20.0925 6.49167 21.1533 6.745 22.1667H12.0967C11.97 21.1217 11.875 20.0767 11.875 19ZM8.04334 25.3333C9.57401 27.9776 12.0089 29.9795 14.8992 30.97C13.9442 29.187 13.2105 27.2941 12.7142 25.3333H8.04334ZM19 6.39667C17.6858 8.29667 16.6567 10.4025 15.9758 12.6667H22.0242C21.3433 10.4025 20.3142 8.29667 19 6.39667ZM29.9567 12.6667C28.4227 10.0252 25.989 8.02434 23.1008 7.03C24.0508 8.7875 24.7792 10.6875 25.2858 12.6667H29.9567ZM19 31.6033C20.3142 29.7033 21.3433 27.5975 22.0242 25.3333H15.9758C16.6567 27.5975 17.6858 29.7033 19 31.6033ZM23.1008 30.97C25.989 29.9757 28.4227 27.9748 29.9567 25.3333H25.2858C24.7895 27.2941 24.0558 29.187 23.1008 30.97ZM31.255 15.8333H25.9033C26.03 16.8783 26.125 17.9233 26.125 19C26.125 20.0767 26.03 21.1217 25.9033 22.1667H31.255C31.5083 21.1533 31.6667 20.0925 31.6667 19C31.6667 17.9075 31.5083 16.8467 31.255 15.8333ZM15.295 15.8333C15.1525 16.8625 15.0417 17.9233 15.0417 19C15.0417 20.0767 15.1525 21.1217 15.295 22.1667H22.705C22.8475 21.1217 22.9583 20.0767 22.9583 19C22.9583 17.9233 22.8475 16.8625 22.705 15.8333H15.295Z" fill="#129786"/>
<path d="M18.9842 3.16667C10.2442 3.16667 3.16666 10.26 3.16666 19C3.16666 27.74 10.2442 34.8333 18.9842 34.8333C27.74 34.8333 34.8333 27.74 34.8333 19C34.8333 10.26 27.74 3.16667 18.9842 3.16667ZM29.9567 12.6667H25.2858C24.7895 10.7059 24.0558 8.813 23.1008 7.03C25.989 8.02434 28.4227 10.0252 29.9567 12.6667ZM19 6.39667C20.3142 8.29667 21.3433 10.4025 22.0242 12.6667H15.9758C16.6567 10.4025 17.6858 8.29667 19 6.39667ZM6.745 22.1667C6.49166 21.1533 6.33333 20.0925 6.33333 19C6.33333 17.9075 6.49166 16.8467 6.745 15.8333H12.0967C11.97 16.8783 11.875 17.9233 11.875 19C11.875 20.0767 11.97 21.1217 12.0967 22.1667H6.745ZM8.04333 25.3333H12.7142C13.2208 27.3125 13.9492 29.2125 14.8992 30.97C12.0089 29.9795 9.57401 27.9776 8.04333 25.3333ZM12.7142 12.6667H8.04333C9.57401 10.0224 12.0089 8.02055 14.8992 7.03C13.9442 8.813 13.2105 10.7059 12.7142 12.6667ZM19 31.6033C17.6858 29.7033 16.6567 27.5975 15.9758 25.3333H22.0242C21.3433 27.5975 20.3142 29.7033 19 31.6033ZM22.705 22.1667H15.295C15.1525 21.1217 15.0417 20.0767 15.0417 19C15.0417 17.9233 15.1525 16.8625 15.295 15.8333H22.705C22.8475 16.8625 22.9583 17.9233 22.9583 19C22.9583 20.0767 22.8475 21.1217 22.705 22.1667ZM23.1008 30.97C24.0508 29.2125 24.7792 27.3125 25.2858 25.3333H29.9567C28.4227 27.9748 25.989 29.9757 23.1008 30.97ZM25.9033 22.1667C26.03 21.1217 26.125 20.0767 26.125 19C26.125 17.9233 26.03 16.8783 25.9033 15.8333H31.255C31.5083 16.8467 31.6667 17.9075 31.6667 19C31.6667 20.0925 31.5083 21.1533 31.255 22.1667H25.9033Z" fill="#129786"/>
</svg>
