<?xml version="1.0" encoding="UTF-8"?>
<svg id="Layer_1" xmlns="http://www.w3.org/2000/svg" version="1.1" viewBox="0 0 512 512">
  <!-- Generator: Adobe Illustrator 30.2.1, SVG Export Plug-In . SVG Version: 2.1.1 Build 1)  -->
  <defs>
    <style>
      .st0 {
        fill: #fff;
      }
    </style>
  </defs>
  <path class="st0" d="M269.9,510.3c278.5-16,330.3-408.2,66-496.3C262.8-10.4,178.9.7,114.9,43.9h0C55,83.7,14.7,147.1,4.1,218.3h0c-25.1,157.2,106.8,302.4,265.8,292h0ZM476,348.9c-9.1,21.5-21.3,41.6-36.3,59.5-1.1-6.3,1.9-13.6-2.5-19.5-4.7-9.2-9.1-18.5-14-27.6-1.8-3.4-1.3-5.3,1.4-7.7,28.8-25.3,3.1-11.8,6-47.9.2-2-.8-3.9-2.6-4.9-13.6-8.7-31.5-11.7-45.6-2-17.6,8.3-42.7,2-48.3-18.2-5-13.4-4.4-27-4.5-40.6.8-7.4,10.9-8.6,9.3-17.2.4-10.8-3.1-22.3,7.1-29.4,1.6-1.4,3.8-2,5.8-1.5,9.4,1.1,18.8-1.1,26.7-6.2,8.4-5.3,18.7-1.9,28-3.1,4.4-.3,7.7,1,10.4,4.4,5.4,6.8,13.7,8.7,20.8,12.9,2.4,1.4,3.6-.4,4.7-1.8,5.9-7.6,15-10.2,22.9-14.6,4.3-2.5,13,7,20.4,7.3,14.7,51.5,11.3,108.8-9.8,158.1h0ZM472.5,155.3c-8.8,1.2-2.9-7.2-7.4-11.6-4.6-4.1-8.9-8.4-13-12.9-2.1-2.3-3.5-2.6-6-.2-6.6,6.5-6.2,5.8,1.5,13.6,9,9.9,15.8,9.7-.5,16.6-3.7,1.7-7.2,5.5-11.2,0-2.4-3.3-5.8-5.5-5.4-10.7.6-7.9-5.4-13.6-8.2-20.4-.8-2-2.3-.6-3.1.4-5.9,7.5-14.7,10.4-22.7,14.6-13.8,12.1-10.7,10.8-29,10.3-1.7,0-2.2-2-2.9-3.2-9.2-15.1-7.5-18.8,2.1-33.1,3.5-2.1,19.1.3,22,3.4,1.3,1.4,2.4,3,4.3,5.4,1.5-5.9.7-10.3.9-14.8,2.5-18.1,17.7-10,28.6-13.9,5.1-3.9,7.2-5.9,6.1-7.8,18.1,18.9,33,40.6,44,64.3h0ZM427.1,89.5c-7.4-4.8-23.8-9.9-24.2-21.8,8.6,6.7,16.7,14,24.2,21.8ZM87.2,87.2c13.8-13.8,29.2-25.9,45.9-35.9,5.7,2.9,9.7,13.6,16.9,9.8,7.6-4,15.7-7.2,21.2-14.3,3.1-3.8,8.5-.9,12.5-2,15.9-2.1,20.2,15.9,26.1,26.7-.5.4-.8.9-1,.8-13.8-1.6-26.4,2.9-38.9,7.7-4.1,1.6-7.3,1.7-9.8-2.2-3.2-4.9-7.2-5-12.3-2.9-4.7,3.3-21.5,3.9-20.3,10.5,1.1,6.2-3.8,16.9,7.4,14.8,5.3-1.8,9.8,13.7,13,4.8,6.9-27.9,35.9-3.6,58.3-21.4,8.2-4.9,15,11.2,18.2,16.9,2.4,5.3,4.2,11.6,12.7,9.7-5.4,5.4-10.8,10.7-16.1,16.1-1.5,1.6-2.9,1.1-4.7.5-6.7-2.3-13.4-4.4-20.1-6.8-3.2-1.1-4.7-1.2-4.6,3,5.4,29.2-19.5,1-36.7,22.9-21.6,21.7-4.9,39.8-34.5,62.6-1.8,1.6-3.2,1.8-5,.5-12.9-9.1-41.8-14.1-51.4.8-.3.9-.1,1.9.4,2.7,5.1,8.3,5.6,22.1,15.3,8.3,2.9-2.5,6.3-1.6,9.3-1.1,3.1.5,1.6,3.8,1.5,5.8.4,7.7,11.5,9.1,9.3,17.7-1.2,6.3,6.7,2.8,10.1,3.9,5.6.8,9.9-1.1,13.5-5.4,2.7-3.3,18.4-5.6,22-3.4,2.9,2.9,4.1,7.4,6.1,10.9,3.4,6.8,3.6,7,8.6,1.6,11.5-9.1,27.7-1.9,38.7,4.4,8.6,4.8,5.8,22.1,18.6,19.6,2.5-.6,3.8,1.5,5.2,3,9.3,11.4,24.4,10,29.9,25.7,3.6,6.5,3.2,12.2.2,18.7-2.1,12.1-8.1,21.1-20.7,24.5-10,3.6,6.9,19.9-16,26.4-5.9,1.3-6.6,5.8-5.9,11,2.4,13.6-.9,23.8-15.8,27.4-4.4,1.5-3.6,7.3-5.7,10.7-10.3,18.8-.9,32.4,12.2,45.6-11.5.7-24,1.8-27.9-10.5-5-14.4-9.5-29-16.8-42.5-2.5-4.5-.9-9.8-.9-14.7-1.8-20.1-22.3-35.1-18.5-56.5,1.5-10.7-13.8,4.6-29.6-14.9-5.3-6.3-17.6-21.4-15.4-29.2,4.3-10.8,4.8-23.8,14.8-31.3,4.3-3.3,4.7-13.6-3.3-11.6-20.4,3.4-16.1-11.9-28-9-8.1.9-13.9-1.8-20.2-7.5-18.9-17.4-24.3-4.5-35.1-17.4,7.3-51.2,31-98.6,67.5-135h0Z"/>
</svg>