<svg width="457" height="23" viewBox="0 0 457 23" fill="none" xmlns="http://www.w3.org/2000/svg">
<path d="M457 0C449.667 1.92469 442.121 3.75521 434.688 5.38346C367.274 20.1248 297.765 22.038 229.31 15.9237C225.468 15.5782 221.615 15.2056 217.703 14.8005C152.853 8.32031 87.4563 5.24891 22.6203 12.7865C15.0223 13.7841 7.36864 14.9315 0 16.7845C7.42633 15.1921 15.0952 14.2993 22.7056 13.5417C87.5945 8.05102 152.612 12.1944 217.288 18.7685C221.218 19.1825 225.091 19.5604 228.952 19.9076C297.735 26.0648 367.828 23.0084 434.863 6.12315C442.251 4.25875 449.739 2.18135 457 0Z" fill="white"/>
</svg>
