<svg width="212" height="64" viewBox="0 0 212 64" fill="none" xmlns="http://www.w3.org/2000/svg">
<path d="M115.46 12.5464V41.0289H108.519V23.2065L102.357 41.0289H96.3602L90.1418 23.2065V41.0289H83.2016V12.5464H91.6964L99.4139 32.3675L107.02 12.5464H115.46Z" fill="white"/>
<path d="M142.776 18.4314V41.0286H135.78V36.92C135.114 38.2525 134.17 39.3074 132.893 40.0847C131.616 40.862 130.117 41.2507 128.396 41.2507C125.787 41.2507 123.732 40.3623 122.233 38.6412C120.679 36.92 119.957 34.5326 119.957 31.4789V18.3203H126.841V30.5906C126.841 32.1452 127.23 33.3111 128.063 34.1994C128.84 35.0323 129.951 35.4764 131.283 35.4764C132.616 35.4764 133.782 35.0323 134.614 34.1439C135.447 33.2556 135.836 31.9786 135.836 30.3129V18.3203H142.832L142.776 18.4314Z" fill="white"/>
<path d="M168.094 20.7633C169.649 22.4845 170.37 24.8719 170.37 27.8701V41.0286H163.43V28.7029C163.43 27.2038 163.041 25.9823 162.209 25.1495C161.431 24.3167 160.376 23.8725 159.044 23.8725C157.711 23.8725 156.545 24.3167 155.713 25.205C154.88 26.0934 154.491 27.3704 154.491 29.036V41.0286H147.551V18.4314H154.491V22.54C155.157 21.2075 156.101 20.0971 157.378 19.3198C158.655 18.5425 160.154 18.1538 161.875 18.1538C164.485 18.1538 166.539 19.0422 168.038 20.7633H168.094Z" fill="white"/>
<path d="M175.423 9.43821C176.2 8.77195 177.199 8.3833 178.421 8.3833C179.642 8.3833 180.642 8.71643 181.419 9.43821C182.196 10.1045 182.53 10.9928 182.53 12.0477C182.53 13.1026 182.141 13.9354 181.419 14.6017C180.642 15.268 179.642 15.6566 178.421 15.6566C177.199 15.6566 176.2 15.3235 175.423 14.6017C174.645 13.9354 174.312 13.0471 174.312 12.0477C174.312 11.0483 174.701 10.1045 175.423 9.43821ZM181.863 18.4327V41.0299H174.923V18.4327H181.863Z" fill="white"/>
<path d="M205.793 19.5417C207.292 20.4855 208.402 21.818 209.291 23.5392C210.179 25.2604 210.568 27.3702 210.568 29.7021C210.568 32.034 210.124 34.0883 209.291 35.865C208.458 37.6417 207.292 38.9742 205.793 39.918C204.294 40.8619 202.628 41.3061 200.796 41.3061C198.964 41.3061 197.576 40.9174 196.354 40.1401C195.133 39.3628 194.189 38.3079 193.634 36.9199V41.0285H186.694V11.0469H193.634V22.5398C194.189 21.2073 195.133 20.0969 196.354 19.3196C197.576 18.5423 199.075 18.1536 200.796 18.1536C202.517 18.1536 204.349 18.5978 205.793 19.5417ZM194.966 25.7045C194.022 26.7039 193.578 28.0364 193.578 29.7576C193.578 31.4788 194.022 32.7558 194.966 33.7552C195.91 34.7545 197.076 35.2542 198.575 35.2542C200.074 35.2542 201.24 34.7545 202.184 33.8107C203.072 32.8113 203.517 31.4788 203.517 29.7576C203.517 28.0364 203.072 26.7039 202.184 25.7045C201.296 24.7052 200.074 24.261 198.575 24.261C197.076 24.261 195.91 24.7607 194.966 25.7601V25.7045Z" fill="white"/>
<path d="M89.6976 46.3033C90.4193 46.8585 90.8635 47.5803 91.0301 48.4687H88.8092C88.6427 48.1355 88.4206 47.9134 88.143 47.7469C87.8654 47.5803 87.4767 47.4693 87.0325 47.4693C86.3663 47.4693 85.8111 47.6914 85.4224 48.1355C85.0338 48.5797 84.8117 49.1904 84.8117 49.9677C84.8117 50.745 85.0338 51.4113 85.4224 51.8555C85.8666 52.2996 86.4218 52.5217 87.1991 52.5217C87.9764 52.5217 88.143 52.4107 88.5316 52.1331C88.9203 51.8555 89.1979 51.4668 89.3089 50.9671H86.6439V49.468H91.0301V51.5223C90.8635 52.022 90.5859 52.5217 90.2528 52.9104C89.9197 53.3545 89.42 53.6877 88.8647 53.9653C88.3095 54.2429 87.6433 54.3539 86.9215 54.3539C86.1997 54.3539 85.2558 54.1874 84.6451 53.7987C83.9789 53.4101 83.4792 52.9104 83.146 52.2441C82.8129 51.5779 82.5908 50.8006 82.5908 49.9677C82.5908 49.1349 82.7574 48.3576 83.146 47.6914C83.5347 47.0251 83.9789 46.5254 84.6451 46.1368C85.3114 45.7481 86.0332 45.5815 86.9215 45.5815C87.8098 45.5815 88.9203 45.8592 89.5865 46.3588L89.6976 46.3033Z" fill="white"/>
<path d="M99.1362 47.4134V54.2426H97.0264V53.0211C96.8043 53.4097 96.5267 53.7429 96.1381 53.965C95.7494 54.187 95.3053 54.2981 94.8056 54.2981C94.0283 54.2981 93.4175 54.0205 92.9178 53.5208C92.4737 53.0211 92.2516 52.2993 92.2516 51.3555V47.3579H94.3614V51.0778C94.3614 51.522 94.4724 51.9107 94.7501 52.1883C94.9721 52.4659 95.3053 52.5769 95.7494 52.5769C96.1936 52.5769 96.5267 52.4659 96.7488 52.1883C96.9709 51.9107 97.1375 51.522 97.1375 51.0223V47.4134H99.2473H99.1362Z" fill="white"/>
<path d="M100.746 44.693C100.968 44.4709 101.302 44.3599 101.635 44.3599C101.968 44.3599 102.301 44.4709 102.523 44.693C102.745 44.9151 102.856 45.1927 102.856 45.4703C102.856 45.7479 102.745 46.0255 102.523 46.2476C102.301 46.4697 101.968 46.5807 101.635 46.5807C101.302 46.5807 100.968 46.4697 100.746 46.2476C100.524 46.0255 100.413 45.8034 100.413 45.4703C100.413 45.1372 100.524 44.8596 100.746 44.693ZM102.69 47.4135V54.2427H100.58V47.4135H102.69Z" fill="white"/>
<path d="M108.075 47.6912C108.464 47.9133 108.741 48.2464 108.908 48.6351V45.1372H111.018V54.2427H108.908V53.0213C108.741 53.4099 108.464 53.743 108.075 53.9651C107.686 54.1872 107.242 54.2982 106.743 54.2982C106.243 54.2982 105.688 54.1317 105.244 53.8541C104.799 53.5765 104.466 53.1878 104.189 52.6326C103.911 52.0774 103.8 51.4667 103.8 50.7449C103.8 50.0231 103.911 49.4124 104.189 48.8571C104.466 48.3019 104.799 47.9133 105.244 47.6357C105.688 47.3581 106.187 47.1915 106.743 47.1915C107.298 47.1915 107.742 47.3025 108.075 47.5246V47.6912ZM106.298 49.6344C106.021 49.9121 105.91 50.3562 105.91 50.8559C105.91 51.3556 106.021 51.7998 106.298 52.0774C106.576 52.355 106.909 52.5216 107.409 52.5216C107.909 52.5216 108.186 52.355 108.519 52.0774C108.852 51.7998 108.963 51.3556 108.963 50.8559C108.963 50.3562 108.797 49.9121 108.519 49.6344C108.242 49.3568 107.853 49.1903 107.409 49.1903C106.965 49.1903 106.576 49.3568 106.298 49.6344Z" fill="white"/>
<path d="M118.902 51.2446H114.127C114.127 51.7443 114.294 52.133 114.516 52.355C114.738 52.5771 115.071 52.6882 115.404 52.6882C115.737 52.6882 115.959 52.6327 116.181 52.4661C116.403 52.2995 116.514 52.133 116.57 51.8554H118.791C118.68 52.355 118.513 52.7437 118.18 53.1323C117.902 53.521 117.514 53.7986 117.014 54.0207C116.57 54.2428 116.015 54.3538 115.46 54.3538C114.904 54.3538 114.183 54.1873 113.683 53.9096C113.183 53.632 112.739 53.2434 112.461 52.6882C112.184 52.133 112.017 51.5222 112.017 50.8004C112.017 50.0787 112.184 49.4679 112.461 48.9127C112.739 48.3575 113.183 47.9689 113.683 47.6912C114.183 47.4136 114.793 47.2471 115.46 47.2471C116.126 47.2471 116.737 47.4136 117.236 47.6912C117.736 47.9689 118.125 48.3575 118.458 48.8572C118.735 49.3569 118.902 49.9676 118.902 50.5784C118.902 51.1891 118.902 50.9115 118.846 51.1336L118.902 51.2446ZM116.459 49.3569C116.181 49.1348 115.904 49.0238 115.515 49.0238C115.126 49.0238 114.793 49.1348 114.571 49.3569C114.294 49.579 114.183 49.9121 114.127 50.3563H116.792C116.792 49.9121 116.681 49.579 116.403 49.3569H116.459Z" fill="white"/>
<path d="M124.01 47.6912C124.398 47.9133 124.676 48.2464 124.843 48.6351V45.1372H126.952V54.2427H124.843V53.0213C124.676 53.4099 124.398 53.743 124.01 53.9651C123.621 54.1872 123.177 54.2982 122.677 54.2982C122.178 54.2982 121.622 54.1317 121.178 53.8541C120.734 53.5765 120.401 53.1878 120.123 52.6326C119.846 52.0774 119.735 51.4667 119.735 50.7449C119.735 50.0231 119.846 49.4124 120.123 48.8571C120.401 48.3019 120.734 47.9133 121.178 47.6357C121.622 47.3581 122.122 47.1915 122.677 47.1915C123.233 47.1915 123.677 47.3025 124.01 47.5246V47.6912ZM122.233 49.6344C121.956 49.9121 121.844 50.3562 121.844 50.8559C121.844 51.3556 121.956 51.7998 122.233 52.0774C122.511 52.355 122.844 52.5216 123.344 52.5216C123.843 52.5216 124.121 52.355 124.454 52.0774C124.787 51.7998 124.898 51.3556 124.898 50.8559C124.898 50.3562 124.732 49.9121 124.454 49.6344C124.176 49.3568 123.788 49.1903 123.344 49.1903C122.899 49.1903 122.511 49.3568 122.233 49.6344Z" fill="white"/>
<path d="M136.613 47.8022C137.057 48.0798 137.391 48.4684 137.668 49.0237C137.946 49.5789 138.057 50.1896 138.057 50.9114C138.057 51.6332 137.946 52.2439 137.668 52.7991C137.391 53.3543 137.057 53.743 136.613 54.0206C136.169 54.2982 135.669 54.4648 135.114 54.4648C134.559 54.4648 134.115 54.3537 133.782 54.1316C133.393 53.9095 133.115 53.5764 132.949 53.1878V54.4092H130.839V45.3037H132.949V48.8016C133.115 48.4129 133.393 48.0798 133.782 47.8577C134.17 47.6356 134.614 47.5246 135.114 47.5246C135.614 47.5246 136.169 47.6911 136.613 47.9687V47.8022ZM133.337 49.6344C133.06 49.912 132.893 50.3562 132.893 50.8559C132.893 51.3555 133.06 51.7442 133.337 52.0773C133.615 52.4105 134.004 52.5215 134.448 52.5215C134.892 52.5215 135.281 52.3549 135.558 52.0773C135.836 51.7997 135.947 51.3555 135.947 50.8559C135.947 50.3562 135.836 49.912 135.558 49.6344C135.281 49.3568 134.948 49.1902 134.448 49.1902C133.948 49.1902 133.671 49.3568 133.337 49.6344Z" fill="white"/>
<path d="M140.722 47.4136L142.387 51.6332L143.942 47.4136H146.274L141.999 57.5185H139.667L141.277 54.0206L138.39 47.4136H140.722Z" fill="white"/>
<path d="M153.27 52.4663V54.2985H152.326C151.548 54.2985 150.882 54.0764 150.438 53.6878C149.994 53.2991 149.772 52.6328 149.772 51.7445V49.246H148.828V47.4694H149.772V45.8037H151.882V47.4694H153.27V49.246H151.882V51.8C151.882 52.0776 151.882 52.2442 152.048 52.3552C152.215 52.4663 152.326 52.5218 152.603 52.5218H153.27V52.4663Z" fill="white"/>
<path d="M160.71 48.1355C161.154 48.6352 161.376 49.357 161.376 50.3008V54.2984H159.266V50.5785C159.266 50.1343 159.155 49.7456 158.877 49.5235C158.655 49.2459 158.322 49.1349 157.933 49.1349C157.545 49.1349 157.156 49.2459 156.934 49.5235C156.712 49.8011 156.545 50.1898 156.545 50.6895V54.2984H154.436V45.1929H156.545V48.6907C156.768 48.3021 157.045 47.9689 157.434 47.7469C157.822 47.5248 158.267 47.4137 158.822 47.4137C159.599 47.4137 160.21 47.6913 160.71 48.191V48.1355Z" fill="white"/>
<path d="M169.204 51.2446H164.429C164.429 51.7443 164.596 52.133 164.818 52.355C165.04 52.5771 165.373 52.6882 165.706 52.6882C166.04 52.6882 166.262 52.6327 166.484 52.4661C166.706 52.2995 166.817 52.133 166.872 51.8554H169.093C168.982 52.355 168.816 52.7437 168.482 53.1323C168.205 53.521 167.816 53.7986 167.317 54.0207C166.872 54.2428 166.317 54.3538 165.762 54.3538C165.207 54.3538 164.485 54.1873 163.985 53.9096C163.486 53.632 163.041 53.2434 162.764 52.6882C162.486 52.133 162.32 51.5222 162.32 50.8004C162.32 50.0787 162.486 49.4679 162.764 48.9127C163.041 48.3575 163.486 47.9689 163.985 47.6912C164.485 47.4136 165.096 47.2471 165.762 47.2471C166.428 47.2471 167.039 47.4136 167.539 47.6912C168.038 47.9689 168.427 48.3575 168.76 48.8572C169.038 49.3569 169.204 49.9676 169.204 50.5784C169.204 51.1891 169.204 50.9115 169.149 51.1336L169.204 51.2446ZM166.761 49.3569C166.484 49.1348 166.206 49.0238 165.817 49.0238C165.429 49.0238 165.096 49.1348 164.874 49.3569C164.596 49.579 164.485 49.9121 164.429 50.3563H167.094C167.094 49.9121 166.983 49.579 166.706 49.3569H166.761Z" fill="white"/>
<path d="M179.032 55.7972L177.921 54.2426C177.588 54.2981 177.255 54.3536 176.977 54.3536C176.144 54.3536 175.423 54.1871 174.756 53.7984C174.09 53.4098 173.535 52.9101 173.146 52.1883C172.758 51.5221 172.536 50.7448 172.536 49.9119C172.536 49.0791 172.758 48.3018 173.146 47.6356C173.535 46.9693 174.09 46.4141 174.756 46.0254C175.423 45.6368 176.144 45.4702 176.977 45.4702C177.81 45.4702 178.532 45.6368 179.198 46.0254C179.864 46.4141 180.364 46.9138 180.753 47.6356C181.141 48.3573 181.308 49.0791 181.308 49.9119C181.308 50.7448 181.141 51.3555 180.864 51.9662C180.531 52.577 180.142 53.0767 179.587 53.5208L181.53 55.7972H179.032ZM175.312 51.7441C175.7 52.1883 176.256 52.4104 176.977 52.4104C177.699 52.4104 178.199 52.1883 178.587 51.7441C178.976 51.3 179.198 50.6892 179.198 49.9119C179.198 49.1346 178.976 48.5239 178.587 48.0797C178.199 47.6355 177.644 47.4135 176.922 47.4135C176.2 47.4135 175.7 47.6355 175.256 48.0797C174.867 48.5239 174.645 49.1346 174.645 49.9119C174.645 50.6892 174.867 51.3 175.256 51.7441H175.312Z" fill="white"/>
<path d="M189.303 47.4134V54.2426H187.193V53.0211C186.971 53.4097 186.694 53.7429 186.305 53.965C185.916 54.187 185.472 54.2981 184.972 54.2981C184.195 54.2981 183.584 54.0205 183.085 53.5208C182.64 53.0211 182.418 52.2993 182.418 51.3555V47.3579H184.528V51.0778C184.528 51.522 184.639 51.9107 184.917 52.1883C185.139 52.4659 185.472 52.5769 185.916 52.5769C186.36 52.5769 186.694 52.4659 186.916 52.1883C187.138 51.9107 187.304 51.522 187.304 51.0223V47.4134H189.414H189.303Z" fill="white"/>
<path d="M193.911 47.7466C194.3 47.5245 194.8 47.3579 195.244 47.3579V49.5788H194.633C194.078 49.5788 193.634 49.6898 193.356 49.9119C193.023 50.134 192.912 50.5782 192.912 51.1334V54.2426H190.802V47.4134H192.912V48.6904C193.19 48.2462 193.523 47.9686 193.911 47.691V47.7466Z" fill="white"/>
<path d="M200.074 47.6911C200.463 47.9132 200.74 48.2463 200.907 48.635V47.4135H203.017V54.2426H200.907V53.0212C200.74 53.4098 200.463 53.7429 200.074 53.965C199.686 54.1871 199.241 54.2982 198.742 54.2982C198.242 54.2982 197.687 54.1316 197.243 53.854C196.798 53.5764 196.465 53.1877 196.188 52.6325C195.91 52.0773 195.799 51.4666 195.799 50.7448C195.799 50.023 195.91 49.4123 196.188 48.857C196.465 48.3018 196.798 47.9132 197.243 47.6356C197.687 47.358 198.186 47.1914 198.742 47.1914C199.297 47.1914 199.741 47.3024 200.074 47.5245V47.6911ZM198.298 49.6344C198.02 49.912 197.909 50.3561 197.909 50.8558C197.909 51.3555 198.02 51.7997 198.298 52.0773C198.575 52.3549 198.908 52.5215 199.408 52.5215C199.908 52.5215 200.185 52.3549 200.518 52.0773C200.852 51.7997 200.963 51.3555 200.963 50.8558C200.963 50.3561 200.796 49.912 200.518 49.6344C200.241 49.3567 199.852 49.1902 199.408 49.1902C198.964 49.1902 198.575 49.3567 198.298 49.6344Z" fill="white"/>
<path d="M210.679 48.1355C211.123 48.6352 211.345 49.357 211.345 50.3008V54.2984H209.235V50.5784C209.235 50.1343 209.124 49.7456 208.847 49.5235C208.625 49.2459 208.291 49.1349 207.903 49.1349C207.514 49.1349 207.125 49.2459 206.903 49.5235C206.626 49.8011 206.515 50.1898 206.515 50.6895V54.2984H204.405V47.4692H206.515V48.7462C206.737 48.3576 207.014 48.0245 207.403 47.8024C207.792 47.5803 208.236 47.4692 208.791 47.4692C209.568 47.4692 210.179 47.7468 210.679 48.2465V48.1355Z" fill="white"/>
<path d="M65.2682 47.7468C65.2682 41.4173 62.8808 35.0879 58.1059 30.2575C58.1059 30.2575 57.9949 30.1465 57.9393 30.091L55.5519 27.7036L40.2835 42.972L28.2909 30.9793L34.5093 24.7609L39.6728 29.9244L40.339 30.5907L49.389 21.5407L55.6074 15.3223L64.2688 23.9836C70.3762 30.1465 73.6519 38.0861 74.0406 46.1367C74.0406 46.5808 74.0406 47.025 74.0406 47.4692C71.0979 49.8566 67.9887 51.6333 64.7685 52.8548C65.1016 51.1891 65.2682 49.468 65.2682 47.8023V47.7468Z" fill="white"/>
<path d="M52.3317 12.0482L46.1133 18.2666L40.228 12.4368L22.5722 30.0926C22.5722 30.0926 22.4611 30.2037 22.4056 30.2592C17.1866 35.5893 14.8547 42.6405 15.2989 49.5251C14.6881 49.6362 14.0774 49.7472 13.4667 49.8583C11.2458 50.358 8.96941 51.1353 6.74855 52.2457C6.47095 50.1914 6.41543 48.1926 6.47095 46.1383C6.8596 38.0322 10.1354 30.0926 16.2982 23.9297L24.9041 15.3239L33.9541 6.27392L40.2835 0L46.5019 6.2184L52.3317 12.0482Z" fill="#0DB59D"/>
<path d="M77.4274 47.3024C76.5946 49.9675 75.0955 52.7991 73.1522 55.3531L70.5982 58.2402C69.0992 59.6837 67.489 60.9052 65.7679 61.7936C62.7697 63.2926 59.2719 63.9034 55.6074 63.9034C47.0571 63.9034 37.3409 60.7942 30.0676 59.3506C25.7924 58.5178 21.5173 57.796 17.2976 57.5739C16.2427 57.5184 15.1878 57.4629 14.1329 57.4629C12.1341 57.4629 10.0799 57.5739 8.08108 57.8515C5.36053 58.2402 2.6955 58.8509 0.0304727 59.8503C-0.136092 59.184 0.419123 59.184 0.752252 58.8509C2.58446 57.1853 4.80532 55.6307 7.19274 54.4092C9.4136 53.2988 11.69 52.4104 13.9664 51.9107C14.5216 51.7997 15.0768 51.6886 15.5765 51.5776C17.2976 51.3 18.9078 51.1889 20.5734 51.1889C30.6228 51.1889 39.1731 55.8528 49.4446 56.6856C50.7216 56.7966 51.943 56.8521 53.1645 56.8521C56.9955 56.8521 60.6044 56.2969 64.0467 55.1865C67.489 54.0761 70.7648 52.3549 73.874 50.0785C75.04 49.1902 76.2059 48.2463 77.3719 47.1914L77.4274 47.3024Z" fill="white"/>
<path d="M73.1523 55.3535C72.375 56.4084 71.4866 57.3523 70.5983 58.2406Z" fill="white"/>
</svg>
