<svg width="133" height="39" viewBox="0 0 133 39" fill="none" xmlns="http://www.w3.org/2000/svg">
<path d="M72.3011 7.55012V24.6882H67.9552V13.9644L64.0959 24.6882H60.341L56.447 13.9644V24.6882H52.1011V7.55012H57.4205L62.2533 19.4766L67.0164 7.55012H72.3011Z" fill="#0D5466"/>
<path d="M89.4069 11.0913V24.6882H85.0261V22.216C84.6089 23.0178 84.0179 23.6525 83.2182 24.1203C82.4185 24.588 81.4798 24.8218 80.402 24.8218C78.7679 24.8218 77.4815 24.2873 76.5428 23.2517C75.5693 22.216 75.1173 20.7795 75.1173 18.9421V11.0245H79.4285V18.4076C79.4285 19.343 79.6719 20.0445 80.1934 20.5791C80.6802 21.0802 81.3755 21.3474 82.2099 21.3474C83.0444 21.3474 83.7745 21.0802 84.296 20.5456C84.8175 20.0111 85.0609 19.2427 85.0609 18.2405V11.0245H89.4416L89.4069 11.0913Z" fill="#0D5466"/>
<path d="M105.261 12.4944C106.235 13.5301 106.687 14.9666 106.687 16.7706V24.6882H102.341V17.2717C102.341 16.3697 102.097 15.6348 101.576 15.1336C101.089 14.6325 100.428 14.3653 99.5939 14.3653C98.7595 14.3653 98.0293 14.6325 97.5078 15.1671C96.9863 15.7016 96.7429 16.4699 96.7429 17.4722V24.6882H92.397V11.0913H96.7429V13.5635C97.1602 12.7617 97.7512 12.0936 98.5509 11.6259C99.3505 11.1581 100.289 10.9243 101.367 10.9243C103.001 10.9243 104.288 11.4588 105.226 12.4944H105.261Z" fill="#0D5466"/>
<path d="M109.85 5.67931C110.337 5.27841 110.963 5.04456 111.728 5.04456C112.493 5.04456 113.118 5.24501 113.605 5.67931C114.092 6.0802 114.301 6.61472 114.301 7.24946C114.301 7.88421 114.057 8.38532 113.605 8.78621C113.118 9.1871 112.493 9.42095 111.728 9.42095C110.963 9.42095 110.337 9.22051 109.85 8.78621C109.364 8.38532 109.155 7.8508 109.155 7.24946C109.155 6.64812 109.398 6.0802 109.85 5.67931ZM113.883 11.0913V24.6882H109.537V11.0913H113.883Z" fill="#0D5466"/>
<path d="M128.868 11.7595C129.807 12.3274 130.502 13.1292 131.059 14.1648C131.615 15.2005 131.858 16.4699 131.858 17.8731C131.858 19.2762 131.58 20.5123 131.059 21.5813C130.537 22.6503 129.807 23.4521 128.868 24.0201C127.929 24.588 126.886 24.8552 125.739 24.8552C124.592 24.8552 123.723 24.6214 122.958 24.1537C122.193 23.686 121.602 23.0512 121.254 22.216V24.6882H116.908V6.64812H121.254V13.5635C121.602 12.7617 122.193 12.0935 122.958 11.6258C123.723 11.1581 124.661 10.9243 125.739 10.9243C126.817 10.9243 127.964 11.1915 128.868 11.7595ZM122.088 15.4677C121.497 16.0691 121.219 16.8708 121.219 17.9065C121.219 18.9421 121.497 19.7105 122.088 20.3118C122.68 20.9131 123.41 21.2138 124.348 21.2138C125.287 21.2138 126.017 20.9131 126.608 20.3452C127.165 19.7439 127.443 18.9421 127.443 17.9065C127.443 16.8708 127.165 16.0691 126.608 15.4677C126.052 14.8664 125.287 14.5991 124.348 14.5991C123.41 14.5991 122.68 14.8998 122.088 15.5011V15.4677Z" fill="#0D5466"/>
<path d="M56.1689 27.8619C56.6209 28.196 56.899 28.6303 57.0033 29.1648H55.6126C55.5083 28.9644 55.3692 28.8307 55.1954 28.7305C55.0216 28.6303 54.7782 28.5635 54.5 28.5635C54.0828 28.5635 53.7352 28.6971 53.4918 28.9644C53.2484 29.2316 53.1093 29.5991 53.1093 30.0668C53.1093 30.5345 53.2484 30.9354 53.4918 31.2027C53.7699 31.4699 54.1176 31.6036 54.6044 31.6036C55.0911 31.6036 55.1954 31.5368 55.4388 31.3697C55.6821 31.2027 55.856 30.9688 55.9255 30.6682H54.2567V29.7662H57.0033V31.0022C56.899 31.3029 56.7252 31.6036 56.5166 31.8374C56.308 32.1047 55.9951 32.3051 55.6474 32.4722C55.2997 32.6392 54.8825 32.706 54.4305 32.706C53.9785 32.706 53.3875 32.6058 53.005 32.3719C52.5878 32.1381 52.2749 31.8374 52.0663 31.4365C51.8577 31.0356 51.7186 30.5679 51.7186 30.0668C51.7186 29.5657 51.8229 29.098 52.0663 28.6971C52.3097 28.2962 52.5878 27.9956 53.005 27.7617C53.4222 27.5278 53.8742 27.4276 54.4305 27.4276C54.9868 27.4276 55.6822 27.5947 56.0994 27.8953L56.1689 27.8619Z" fill="#0D5466"/>
<path d="M62.0794 28.5301V32.6392H60.7582V31.9042C60.6191 32.1381 60.4453 32.3385 60.2019 32.4721C59.9586 32.6058 59.6804 32.6726 59.3675 32.6726C58.8808 32.6726 58.4983 32.5056 58.1854 32.2049C57.9073 31.9042 57.7682 31.4699 57.7682 30.902V28.4966H59.0894V30.735C59.0894 31.0022 59.1589 31.2361 59.3327 31.4031C59.4718 31.5701 59.6804 31.637 59.9586 31.637C60.2367 31.637 60.4453 31.5701 60.5844 31.4031C60.7234 31.2361 60.8277 31.0022 60.8277 30.7015V28.5301H62.1489H62.0794Z" fill="#0D5466"/>
<path d="M63.0876 26.8931C63.2267 26.7595 63.4353 26.6926 63.6439 26.6926C63.8525 26.6926 64.0611 26.7595 64.2002 26.8931C64.3393 27.0267 64.4088 27.1938 64.4088 27.3608C64.4088 27.5278 64.3393 27.6949 64.2002 27.8285C64.0611 27.9621 63.8525 28.0289 63.6439 28.0289C63.4353 28.0289 63.2267 27.9621 63.0876 27.8285C62.9486 27.6949 62.879 27.5612 62.879 27.3608C62.879 27.1603 62.9486 26.9933 63.0876 26.8931ZM64.3045 28.5301V32.6392H62.9833V28.5301H64.3045Z" fill="#0D5466"/>
<path d="M67.6771 28.6971C67.9205 28.8307 68.0943 29.0312 68.1986 29.265V27.1603H69.5198V32.6392H68.1986V31.9042C68.0943 32.1381 67.9205 32.3385 67.6771 32.4721C67.4337 32.6058 67.1556 32.6726 66.8427 32.6726C66.5298 32.6726 66.1821 32.5724 65.904 32.4053C65.6258 32.2383 65.4172 32.0044 65.2434 31.6704C65.0695 31.3363 65 30.9688 65 30.5345C65 30.1002 65.0695 29.7327 65.2434 29.3986C65.4172 29.0646 65.6258 28.8307 65.904 28.6637C66.1821 28.4966 66.495 28.3964 66.8427 28.3964C67.1904 28.3964 67.4685 28.4632 67.6771 28.5969V28.6971ZM66.5645 29.8664C66.3907 30.0334 66.3212 30.3007 66.3212 30.6013C66.3212 30.902 66.3907 31.1692 66.5645 31.3363C66.7384 31.5033 66.947 31.6035 67.2599 31.6035C67.5728 31.6035 67.7467 31.5033 67.9553 31.3363C68.1639 31.1692 68.2334 30.902 68.2334 30.6013C68.2334 30.3007 68.1291 30.0334 67.9553 29.8664C67.7814 29.6993 67.538 29.5991 67.2599 29.5991C66.9818 29.5991 66.7384 29.6993 66.5645 29.8664Z" fill="#0D5466"/>
<path d="M74.4568 30.8352H71.4668C71.4668 31.1358 71.5711 31.3697 71.7102 31.5033C71.8492 31.6369 72.0579 31.7038 72.2665 31.7038C72.4751 31.7038 72.6141 31.6703 72.7532 31.5701C72.8923 31.4699 72.9618 31.3697 72.9966 31.2026H74.3873C74.3178 31.5033 74.2135 31.7372 74.0049 31.971C73.831 32.2049 73.5876 32.3719 73.2747 32.5055C72.9966 32.6392 72.6489 32.706 72.3012 32.706C71.9536 32.706 71.5016 32.6058 71.1887 32.4387C70.8758 32.2717 70.5976 32.0378 70.4238 31.7038C70.2499 31.3697 70.1456 31.0022 70.1456 30.5679C70.1456 30.1336 70.2499 29.7661 70.4238 29.432C70.5976 29.098 70.8758 28.8641 71.1887 28.6971C71.5016 28.53 71.884 28.4298 72.3012 28.4298C72.7184 28.4298 73.1009 28.53 73.4138 28.6971C73.7267 28.8641 73.9701 29.098 74.1787 29.3986C74.3525 29.6993 74.4568 30.0668 74.4568 30.4343C74.4568 30.8017 74.4568 30.6347 74.4221 30.7683L74.4568 30.8352ZM72.927 29.6993C72.7532 29.5657 72.5794 29.4989 72.336 29.4989C72.0926 29.4989 71.884 29.5657 71.7449 29.6993C71.5711 29.8329 71.5016 30.0334 71.4668 30.3006H73.1357C73.1357 30.0334 73.0661 29.8329 72.8923 29.6993H72.927Z" fill="#0D5466"/>
<path d="M77.6554 28.6971C77.8988 28.8307 78.0726 29.0312 78.1769 29.265V27.1603H79.4981V32.6392H78.1769V31.9042C78.0726 32.1381 77.8988 32.3385 77.6554 32.4721C77.412 32.6058 77.1339 32.6726 76.821 32.6726C76.508 32.6726 76.1604 32.5724 75.8822 32.4053C75.6041 32.2383 75.3955 32.0044 75.2216 31.6704C75.0478 31.3363 74.9783 30.9688 74.9783 30.5345C74.9783 30.1002 75.0478 29.7327 75.2216 29.3986C75.3955 29.0646 75.6041 28.8307 75.8822 28.6637C76.1604 28.4966 76.4733 28.3964 76.821 28.3964C77.1686 28.3964 77.4468 28.4632 77.6554 28.5969V28.6971ZM76.5428 29.8664C76.369 30.0334 76.2994 30.3007 76.2994 30.6013C76.2994 30.902 76.369 31.1692 76.5428 31.3363C76.7167 31.5033 76.9253 31.6035 77.2382 31.6035C77.5511 31.6035 77.7249 31.5033 77.9335 31.3363C78.1421 31.1692 78.2117 30.902 78.2117 30.6013C78.2117 30.3007 78.1074 30.0334 77.9335 29.8664C77.7597 29.6993 77.5163 29.5991 77.2382 29.5991C76.96 29.5991 76.7167 29.6993 76.5428 29.8664Z" fill="#0D5466"/>
<path d="M85.5476 28.7639C85.8257 28.9309 86.0344 29.1648 86.2082 29.4989C86.382 29.833 86.4516 30.2004 86.4516 30.6347C86.4516 31.069 86.382 31.4365 86.2082 31.7706C86.0344 32.1047 85.8257 32.3385 85.5476 32.5056C85.2695 32.6726 84.9566 32.7728 84.6089 32.7728C84.2612 32.7728 83.9831 32.706 83.7744 32.5724C83.5311 32.4387 83.3572 32.2383 83.2529 32.0044V32.7394H81.9318V27.2606H83.2529V29.3652C83.3572 29.1314 83.5311 28.9309 83.7744 28.7973C84.0178 28.6637 84.296 28.5969 84.6089 28.5969C84.9218 28.5969 85.2695 28.6971 85.5476 28.8641V28.7639ZM83.4963 29.8664C83.3225 30.0334 83.2182 30.3007 83.2182 30.6013C83.2182 30.902 83.3225 31.1358 83.4963 31.3363C83.6701 31.5367 83.9135 31.6036 84.1917 31.6036C84.4698 31.6036 84.7132 31.5033 84.887 31.3363C85.0609 31.1693 85.1304 30.902 85.1304 30.6013C85.1304 30.3007 85.0609 30.0334 84.887 29.8664C84.7132 29.6993 84.5046 29.5991 84.1917 29.5991C83.8788 29.5991 83.7049 29.6993 83.4963 29.8664Z" fill="#0D5466"/>
<path d="M88.1204 28.5301L89.1634 31.069L90.1369 28.5301H91.5972L88.9201 34.6102H87.4598L88.4681 32.5056L86.6602 28.5301H88.1204Z" fill="#0D5466"/>
<path d="M95.978 31.5701V32.6726H95.3869C94.9001 32.6726 94.4829 32.539 94.2048 32.3051C93.9267 32.0713 93.7876 31.6704 93.7876 31.1358V29.6325H93.1965V28.5635H93.7876V27.5612H95.1088V28.5635H95.978V29.6325H95.1088V31.1693C95.1088 31.3363 95.1088 31.4365 95.2131 31.5033C95.3174 31.5701 95.3869 31.6036 95.5607 31.6036H95.978V31.5701Z" fill="#0D5466"/>
<path d="M100.637 28.9644C100.915 29.265 101.054 29.6993 101.054 30.2673V32.6726H99.7329V30.4343C99.7329 30.167 99.6634 29.9332 99.4895 29.7996C99.3505 29.6325 99.1419 29.5657 98.8985 29.5657C98.6551 29.5657 98.4117 29.6325 98.2727 29.7996C98.1336 29.9666 98.0293 30.2004 98.0293 30.5011V32.6726H96.7081V27.1938H98.0293V29.2984C98.1684 29.0646 98.3422 28.8641 98.5856 28.7305C98.829 28.5969 99.1071 28.5301 99.4548 28.5301C99.9415 28.5301 100.324 28.6971 100.637 28.9978V28.9644Z" fill="#0D5466"/>
<path d="M105.956 30.8352H102.966C102.966 31.1358 103.071 31.3697 103.21 31.5033C103.349 31.6369 103.557 31.7038 103.766 31.7038C103.975 31.7038 104.114 31.6703 104.253 31.5701C104.392 31.4699 104.461 31.3697 104.496 31.2026H105.887C105.817 31.5033 105.713 31.7372 105.504 31.971C105.331 32.2049 105.087 32.3719 104.774 32.5055C104.496 32.6392 104.148 32.706 103.801 32.706C103.453 32.706 103.001 32.6058 102.688 32.4387C102.375 32.2717 102.097 32.0378 101.923 31.7038C101.749 31.3697 101.645 31.0022 101.645 30.5679C101.645 30.1336 101.749 29.7661 101.923 29.432C102.097 29.098 102.375 28.8641 102.688 28.6971C103.001 28.53 103.384 28.4298 103.801 28.4298C104.218 28.4298 104.6 28.53 104.913 28.6971C105.226 28.8641 105.47 29.098 105.678 29.3986C105.852 29.6993 105.956 30.0668 105.956 30.4343C105.956 30.8017 105.956 30.6347 105.922 30.7683L105.956 30.8352ZM104.427 29.6993C104.253 29.5657 104.079 29.4989 103.836 29.4989C103.592 29.4989 103.384 29.5657 103.244 29.6993C103.071 29.8329 103.001 30.0334 102.966 30.3006H104.635C104.635 30.0334 104.566 29.8329 104.392 29.6993H104.427Z" fill="#0D5466"/>
<path d="M112.11 33.5746L111.415 32.6392C111.206 32.6726 110.998 32.706 110.824 32.706C110.302 32.706 109.85 32.6058 109.433 32.3719C109.016 32.1381 108.668 31.8374 108.425 31.4031C108.181 31.0022 108.042 30.5345 108.042 30.0334C108.042 29.5323 108.181 29.0646 108.425 28.6637C108.668 28.2628 109.016 27.9287 109.433 27.6949C109.85 27.461 110.302 27.3608 110.824 27.3608C111.345 27.3608 111.797 27.461 112.214 27.6949C112.632 27.9287 112.945 28.2294 113.188 28.6637C113.431 29.098 113.536 29.5323 113.536 30.0334C113.536 30.5345 113.431 30.902 113.258 31.2695C113.049 31.637 112.806 31.9376 112.458 32.2049L113.675 33.5746H112.11ZM109.781 31.1358C110.024 31.4031 110.372 31.5367 110.824 31.5367C111.276 31.5367 111.589 31.4031 111.832 31.1358C112.075 30.8686 112.214 30.5011 112.214 30.0334C112.214 29.5657 112.075 29.1982 111.832 28.931C111.589 28.6637 111.241 28.5301 110.789 28.5301C110.337 28.5301 110.024 28.6637 109.746 28.931C109.503 29.1982 109.364 29.5657 109.364 30.0334C109.364 30.5011 109.503 30.8686 109.746 31.1358H109.781Z" fill="#0D5466"/>
<path d="M118.542 28.5301V32.6392H117.221V31.9042C117.082 32.1381 116.908 32.3385 116.665 32.4721C116.421 32.6058 116.143 32.6726 115.83 32.6726C115.344 32.6726 114.961 32.5056 114.648 32.2049C114.37 31.9042 114.231 31.4699 114.231 30.902V28.4966H115.552V30.735C115.552 31.0022 115.622 31.2361 115.796 31.4031C115.935 31.5701 116.143 31.637 116.421 31.637C116.7 31.637 116.908 31.5701 117.047 31.4031C117.186 31.2361 117.291 31.0022 117.291 30.7015V28.5301H118.612H118.542Z" fill="#0D5466"/>
<path d="M121.428 28.7305C121.671 28.5969 121.984 28.4966 122.262 28.4966V29.833H121.88C121.532 29.833 121.254 29.8998 121.08 30.0334C120.872 30.167 120.802 30.4343 120.802 30.7684V32.6392H119.481V28.5301H120.802V29.2984C120.976 29.0312 121.185 28.8641 121.428 28.6971V28.7305Z" fill="#0D5466"/>
<path d="M125.287 28.6971C125.531 28.8307 125.704 29.0312 125.809 29.265V28.5301H127.13V32.6392H125.809V31.9042C125.704 32.1381 125.531 32.3385 125.287 32.4722C125.044 32.6058 124.766 32.6726 124.453 32.6726C124.14 32.6726 123.792 32.5724 123.514 32.4053C123.236 32.2383 123.027 32.0045 122.853 31.6704C122.68 31.3363 122.61 30.9688 122.61 30.5345C122.61 30.1002 122.68 29.7327 122.853 29.3987C123.027 29.0646 123.236 28.8307 123.514 28.6637C123.792 28.4967 124.105 28.3964 124.453 28.3964C124.8 28.3964 125.079 28.4633 125.287 28.5969V28.6971ZM124.175 29.8664C124.001 30.0334 123.931 30.3007 123.931 30.6013C123.931 30.902 124.001 31.1693 124.175 31.3363C124.348 31.5033 124.557 31.6036 124.87 31.6036C125.183 31.6036 125.357 31.5033 125.565 31.3363C125.774 31.1693 125.844 30.902 125.844 30.6013C125.844 30.3007 125.739 30.0334 125.565 29.8664C125.392 29.6993 125.148 29.5991 124.87 29.5991C124.592 29.5991 124.348 29.6993 124.175 29.8664Z" fill="#0D5466"/>
<path d="M131.928 28.9644C132.206 29.265 132.345 29.6993 132.345 30.2673V32.6726H131.024V30.4343C131.024 30.167 130.954 29.9332 130.78 29.7996C130.641 29.6325 130.433 29.5657 130.189 29.5657C129.946 29.5657 129.703 29.6325 129.564 29.7996C129.39 29.9666 129.32 30.2004 129.32 30.5011V32.6726H127.999V28.5635H129.32V29.3318C129.459 29.098 129.633 28.8975 129.876 28.7639C130.12 28.6303 130.398 28.5635 130.746 28.5635C131.232 28.5635 131.615 28.7305 131.928 29.0312V28.9644Z" fill="#0D5466"/>
<path d="M40.8711 28.7305C40.8711 24.9221 39.3761 21.1136 36.3861 18.2071C36.3861 18.2071 36.3166 18.1403 36.2818 18.1069L34.7868 16.6704L25.2257 25.8575L17.7158 18.6414L21.6098 14.8998L24.8432 18.0067L25.2604 18.4076L30.9276 12.9622L34.8216 9.2205L40.2453 14.4321C44.0698 18.1403 46.1211 22.9176 46.3644 27.7617C46.3644 28.029 46.3644 28.2962 46.3644 28.5635C44.5218 30 42.5748 31.0691 40.5582 31.804C40.7668 30.8018 40.8711 29.7662 40.8711 28.7639V28.7305Z" fill="#0D5466"/>
<path d="M32.7703 7.24944L28.8763 10.9911L25.1909 7.4833L14.1348 18.1069C14.1348 18.1069 14.0653 18.1737 14.0305 18.2071C10.7623 21.4143 9.30208 25.657 9.58023 29.7996C9.19778 29.8664 8.81534 29.9332 8.43289 30C7.04218 30.3007 5.6167 30.7684 4.22599 31.4365C4.05215 30.2004 4.01739 28.9978 4.05215 27.7617C4.29553 22.8842 6.34683 18.1069 10.206 14.3987L15.595 9.22049L21.2622 3.77506L25.2257 0L29.1197 3.74165L32.7703 7.24944Z" fill="#0DB59D"/>
<path d="M48.4853 28.4633C47.9638 30.0668 47.0251 31.7706 45.8082 33.3074L44.2089 35.0446C43.2702 35.9132 42.2619 36.6481 41.1841 37.1826C39.3066 38.0846 37.1163 38.4521 34.8216 38.4521C29.4674 38.4521 23.383 36.5813 18.8284 35.7127C16.1513 35.2116 13.4742 34.7773 10.8319 34.6437C10.1713 34.6103 9.51068 34.5768 8.85009 34.5768C7.59845 34.5768 6.31204 34.6437 5.06041 34.8107C3.35679 35.0446 1.68793 35.412 0.0190821 36.0134C-0.0852211 35.6125 0.262456 35.6125 0.471063 35.412C1.6184 34.4098 3.00911 33.4744 4.50412 32.7394C5.89483 32.0713 7.32031 31.5368 8.74579 31.2361C9.09346 31.1693 9.44114 31.1025 9.75405 31.0356C10.8319 30.8686 11.8401 30.8018 12.8831 30.8018C19.1761 30.8018 24.5303 33.608 30.9624 34.1091C31.762 34.176 32.5269 34.2094 33.2918 34.2094C35.6908 34.2094 37.9507 33.8753 40.1063 33.2071C42.2619 32.539 44.3132 31.5034 46.2602 30.1336C46.9903 29.5991 47.7204 29.0312 48.4506 28.3964L48.4853 28.4633Z" fill="#0D5466"/>
<path d="M45.8082 33.3074C45.3214 33.9421 44.7651 34.51 44.2089 35.0445Z" fill="#0D5466"/>
</svg>
