<svg width="14" height="15" viewBox="0 0 14 15" fill="none" xmlns="http://www.w3.org/2000/svg">
<path d="M13.2485 13.7027C13.2441 13.686 12.8086 12.0144 12.6035 10.7531C12.5075 10.1625 12.0787 9.68055 11.5304 9.29604C11.5508 9.43374 11.5508 9.57474 11.5291 9.71513C11.4208 10.4155 10.7565 11.3754 8.20752 11.9715C8.188 11.9761 8.16845 11.9783 8.14921 11.9783C8.03344 11.9783 7.92865 11.8989 7.90114 11.7813C7.86908 11.6442 7.95425 11.507 8.09137 11.4749C10.4831 10.9156 10.9561 10.0834 11.0251 9.6371C11.0837 9.25844 10.8849 8.94751 10.7321 8.85656C10.6687 8.81885 10.6279 8.75793 10.6135 8.69115C9.46882 7.26995 9.19583 3.70416 9.19583 2.68236C9.19583 2.42039 9.14986 2.14547 9.05391 1.8786C8.70674 0.79101 7.67453 0 6.45835 0C4.95827 0 3.73788 1.20329 3.73788 2.68236C3.73788 2.77267 3.73934 2.87616 3.74332 2.9902C3.68746 4.28771 3.47513 6.29476 3.06566 7.61641C2.97186 8.43057 3.08691 9.01167 3.41342 9.40868C3.94456 10.0545 5.10934 10.3158 6.97451 10.2074C7.11421 10.1989 7.2357 10.3066 7.24386 10.4472C7.25202 10.5878 7.14468 10.7084 7.00405 10.7166C6.71924 10.7331 6.44962 10.7415 6.19472 10.7415C4.5993 10.7415 3.5807 10.415 3.01949 9.73264C2.78336 9.44551 2.63182 9.10364 2.56342 8.6902C2.55213 8.70397 2.54077 8.71733 2.52931 8.73011C2.4387 8.77499 2.3483 8.82246 2.25881 8.87227C2.10999 8.97923 1.93343 9.27741 1.98909 9.6371C2.05814 10.0834 2.53108 10.9156 4.92285 11.4749C5.05997 11.507 5.14514 11.6442 5.11308 11.7813C5.08557 11.8989 4.98078 11.9783 4.86501 11.9783C4.8458 11.9783 4.82625 11.9761 4.80674 11.9715C2.25769 11.3754 1.59346 10.4154 1.48511 9.71509C1.46957 9.61473 1.46525 9.51405 1.47137 9.41446C1.00693 9.81794 0.732346 10.2663 0.653194 10.7531C0.44814 12.0144 0.0126677 13.686 0.00828168 13.7027C-0.0116763 13.7791 0.00488167 13.8605 0.0531617 13.923C0.101442 13.9856 0.17597 14.0222 0.254986 14.0222H13.0018C13.0808 14.0222 13.1553 13.9856 13.2036 13.923C13.2519 13.8605 13.2685 13.7791 13.2485 13.7027ZM4.97177 4.5204C4.82115 4.5204 4.69906 4.39831 4.69906 4.24769V3.99568C4.69906 3.84506 4.82115 3.72297 4.97177 3.72297H7.94494C8.09556 3.72297 8.21765 3.84506 8.21765 3.99568V4.24769C8.21765 4.39831 8.09556 4.5204 7.94494 4.5204H4.97177ZM7.85171 10.6462C7.72268 10.6462 7.61197 10.5486 7.59837 10.4174C7.58382 10.2774 7.68562 10.152 7.82573 10.1375L7.91063 10.1285C8.05051 10.1135 8.17637 10.2148 8.1914 10.3548C8.20643 10.4948 8.10511 10.6205 7.9651 10.6356L7.87833 10.6448C7.86939 10.6457 7.86048 10.6462 7.85171 10.6462Z" fill="#129786"/>
</svg>
