<?xml version="1.0" encoding="UTF-8"?>
<svg id="Capa_1" xmlns="http://www.w3.org/2000/svg" version="1.1" viewBox="0 0 512 512">
  <!-- Generator: Adobe Illustrator 30.2.1, SVG Export Plug-In . SVG Version: 2.1.1 Build 1)  -->
  <defs>
    <style>
      .st0 {
        fill: #fff;
      }
    </style>
  </defs>
  <polygon class="st0" points="363.3 211.6 363.3 148.7 300.4 148.7 256 104.3 211.6 148.7 148.7 148.7 148.7 211.6 104.3 256 148.7 300.4 148.7 363.3 211.6 363.3 256 407.7 300.4 363.3 363.3 363.3 363.3 300.4 407.7 256 363.3 211.6"/>
  <path class="st0" d="M437,181v-106h-106L256,0l-75,75h-106v106L0,256l75,75v106h106l75,75,75-75h106v-106l75-75-75-75ZM393.3,312.9v80.4h-80.4l-56.9,56.9-56.9-56.9h-80.4v-80.4l-56.9-56.9,56.9-56.9v-80.4h80.4l56.9-56.9,56.9,56.9h80.4v80.4l56.9,56.9-56.9,56.9Z"/>
</svg>