<?xml version="1.0" encoding="UTF-8"?>
<svg id="Layer_2" xmlns="http://www.w3.org/2000/svg" version="1.1" viewBox="0 0 512 512">
  <!-- Generator: Adobe Illustrator 30.2.1, SVG Export Plug-In . SVG Version: 2.1.1 Build 1)  -->
  <defs>
    <style>
      .st0 {
        fill: #fff;
      }
    </style>
  </defs>
  <g id="Icon">
    <path id="_15" class="st0" d="M384.8,248.4c0,3.8-5.6,7.3-16.8,10.7-13.1,3.9-30.1,5.8-51.1,5.8s-9.6-.1-14.5-.3c24.1-23.9,43.8-35.9,59-35.9s23.4,6.6,23.4,19.8h0ZM512,150v212c0,82.8-67.2,150-150,150h-212C67.2,512,0,444.8,0,362v-212C0,67.2,67.2,0,150,0h212c82.8,0,150,67.2,150,150ZM327.1,120.6l23.3,22.7c1.7,1.6,3.4,1.6,5,0l23.2-23c1.6-1.8,1.6-3.4,0-4.9l-23.6-22.6c-2-1.9-4-1.9-6,0l-21.4,21.9c-2.1,2.2-2.2,4.1-.5,5.8h0ZM428.5,221.2c0-12.7-4.3-23.2-13-31.7s-19.3-12.8-32-12.8c-25,0-53.7,19.6-86.1,58.8-11.4,13.8-17.5,20.7-18.3,20.7-3.2,0-12.6-9.2-28.4-27.7-1.6-1.9-2.9-2.9-3.8-2.9s-1.9,1-2.9,2.9l-26.7,52c22.9,18.5,34.3,31.8,34.3,40s-8.9,17-26.8,21.5c-12,3.1-24.7,4.6-38.1,4.6-45.2,0-67.8-11.3-67.8-33.8s.7-7.7,2.1-13.8,2.1-10.6,2.1-13.5c0-6-.3-10.1-1-12.3-1.4-4.2-4.4-6.3-9.2-6.3-7.9,0-15,10.5-21.4,31.5-5.4,17.7-8,33.1-8,46.3,0,27,9.7,46.9,29.2,59.8,16.3,10.8,38.6,16.2,67,16.2,69,0,103.6-31.3,103.6-94,11.5,5.1,24.3,7.7,38.3,7.7,30.1,0,55.6-11.4,76.6-34.2,20.3-22.1,30.4-48.4,30.4-78.9h0Z"/>
  </g>
</svg>