<svg width="100" height="90" viewBox="0 0 100 90" fill="none" xmlns="http://www.w3.org/2000/svg">
<path fill-rule="evenodd" clip-rule="evenodd" d="M55.4663 55.6121C57.2524 56.2943 58.1469 58.295 57.4647 60.0807C54.5164 67.8008 50.0303 72.0566 44.5837 74.1852C39.5423 76.155 33.9578 76.1541 29.1469 76.1532C29.0465 76.1532 28.9465 76.1532 28.8468 76.1532C23.6766 76.1532 19.3411 76.1961 15.6297 77.6467C12.2179 78.9796 9.03597 81.6468 6.69613 87.7728C6.01398 89.5589 4.01328 90.4533 2.22737 89.7712C0.441463 89.0891 -0.45336 87.0883 0.228788 85.3026C3.17734 77.583 7.66355 73.3267 13.1099 71.1981C18.1514 69.2283 23.7358 69.2292 28.5468 69.2302H28.8468C34.017 69.2302 38.3525 69.1872 42.0638 67.7366C45.4759 66.4037 48.6577 63.737 50.9977 57.6106C51.6798 55.8244 53.6806 54.93 55.4663 55.6121Z" fill="#129786"/>
<path fill-rule="evenodd" clip-rule="evenodd" d="M53.9895 2.63327e-06H72.9466C78.1748 -8.96736e-05 82.4477 -0.00018146 85.8206 0.453322C89.3467 0.927364 92.4034 1.95326 94.8436 4.39335C97.2837 6.83348 98.3097 9.89036 98.7837 13.4163C99.2369 16.7895 99.2369 21.062 99.2369 26.2904V36.0167C99.2369 41.245 99.2369 45.5179 98.7837 48.8908C98.3097 52.4169 97.2837 55.4736 94.8436 57.9138C92.4034 60.3539 89.3467 61.3799 85.8206 61.8539C82.4477 62.3071 78.1748 62.3071 72.9466 62.3071H65.7697C63.858 62.3071 62.3082 60.7573 62.3082 58.8456C62.3082 56.9339 63.858 55.3841 65.7697 55.3841H72.6987C78.2357 55.3841 82.0406 55.3767 84.898 54.9927C87.6566 54.6217 89.0089 53.958 89.9481 53.0183C90.8878 52.0791 91.5515 50.7268 91.9225 47.9682C92.3065 45.1108 92.3139 41.3059 92.3139 35.7689V26.5382C92.3139 21.0011 92.3065 17.1965 91.9225 14.3388C91.5515 11.5805 90.8878 10.2281 89.9481 9.28865C89.0089 8.34925 87.6566 7.68542 84.898 7.31458C82.0406 6.93035 78.2357 6.92302 72.6987 6.92302H54.2373C48.7003 6.92302 44.8959 6.93035 42.0381 7.31458C39.2797 7.68542 37.9272 8.34925 36.9878 9.28865C36.1835 10.093 35.5923 11.1885 35.2046 13.1675C34.798 15.2432 34.6676 18.0021 34.634 21.9522C34.6178 23.8639 33.055 25.4005 31.1433 25.3842C29.2316 25.368 27.6951 23.8052 27.7113 21.8935C27.7446 17.9673 27.8661 14.617 28.4107 11.8367C28.9743 8.95977 30.0334 6.45244 32.0925 4.39335C34.5326 1.95326 37.5895 0.927364 41.1155 0.453322C44.4884 -0.00018146 48.7612 -8.96736e-05 53.9895 2.63327e-06Z" fill="#0D5466"/>
<path fill-rule="evenodd" clip-rule="evenodd" d="M28.8468 39.2304C24.3861 39.2304 20.77 42.8465 20.77 47.3072C20.77 51.768 24.3861 55.3841 28.8468 55.3841C33.3076 55.3841 36.9237 51.768 36.9237 47.3072C36.9237 42.8465 33.3076 39.2304 28.8468 39.2304ZM13.847 47.3072C13.847 39.0232 20.5627 32.3074 28.8468 32.3074C37.1311 32.3074 43.8467 39.0232 43.8467 47.3072C43.8467 55.5913 37.1311 62.3071 28.8468 62.3071C20.5627 62.3071 13.847 55.5913 13.847 47.3072Z" fill="#129786"/>
<path fill-rule="evenodd" clip-rule="evenodd" d="M46.1544 21.9228C46.1544 20.0111 47.7043 18.4613 49.6159 18.4613H77.308C79.2197 18.4613 80.7695 20.0111 80.7695 21.9228C80.7695 23.8346 79.2197 25.3843 77.308 25.3843H49.6159C47.7043 25.3843 46.1544 23.8346 46.1544 21.9228ZM60.0004 40.3842C60.0004 38.4725 61.5503 36.9227 63.462 36.9227H77.308C79.2197 36.9227 80.7695 38.4725 80.7695 40.3842C80.7695 42.2959 79.2197 43.8457 77.308 43.8457H63.462C61.5503 43.8457 60.0004 42.2959 60.0004 40.3842Z" fill="#0D5466"/>
</svg>
