<svg width="90" height="90" viewBox="0 0 90 90" fill="none" xmlns="http://www.w3.org/2000/svg">
<g clip-path="url(#clip0_48_3176)">
<path d="M67.8516 40.4297C69.7932 40.4297 71.3672 38.8557 71.3672 36.9141C71.3672 34.9724 69.7932 33.3984 67.8516 33.3984C65.9099 33.3984 64.3359 34.9724 64.3359 36.9141C64.3359 38.8557 65.9099 40.4297 67.8516 40.4297Z" fill="#129786"/>
<path d="M75.9375 7.03125H71.3672V3.51562C71.3672 1.57395 69.7932 0 67.8516 0C65.9099 0 64.3359 1.57395 64.3359 3.51562V7.03125H48.3398V3.51562C48.3398 1.57395 46.7659 0 44.8242 0C42.8825 0 41.3086 1.57395 41.3086 3.51562V7.03125H25.4883V3.51562C25.4883 1.57395 23.9143 0 21.9727 0C20.031 0 18.457 1.57395 18.457 3.51562V7.03125H14.0625C6.30844 7.03125 0 13.3397 0 21.0938V75.9375C0 83.6916 6.30844 90 14.0625 90H40.957C42.8987 90 44.4727 88.4261 44.4727 86.4844C44.4727 84.5427 42.8987 82.9688 40.957 82.9688H14.0625C10.1855 82.9688 7.03125 79.8145 7.03125 75.9375V21.0938C7.03125 17.2167 10.1855 14.0625 14.0625 14.0625H18.457V17.5781C18.457 19.5198 20.031 21.0938 21.9727 21.0938C23.9143 21.0938 25.4883 19.5198 25.4883 17.5781V14.0625H41.3086V17.5781C41.3086 19.5198 42.8825 21.0938 44.8242 21.0938C46.7659 21.0938 48.3398 19.5198 48.3398 17.5781V14.0625H64.3359V17.5781C64.3359 19.5198 65.9099 21.0938 67.8516 21.0938C69.7932 21.0938 71.3672 19.5198 71.3672 17.5781V14.0625H75.9375C79.8145 14.0625 82.9688 17.2167 82.9688 21.0938V41.1328C82.9688 43.0745 84.5427 44.6484 86.4844 44.6484C88.4261 44.6484 90 43.0745 90 41.1328V21.0938C90 13.3397 83.6916 7.03125 75.9375 7.03125Z" fill="#0D5466"/>
<path d="M68.7305 47.4609C57.0023 47.4609 47.4609 57.0023 47.4609 68.7305C47.4609 80.4586 57.0023 90 68.7305 90C80.4586 90 90 80.4586 90 68.7305C90 57.0023 80.4586 47.4609 68.7305 47.4609ZM68.7305 82.9687C60.8795 82.9687 54.4922 76.5816 54.4922 68.7305C54.4922 60.8794 60.8795 54.4922 68.7305 54.4922C76.5814 54.4922 82.9687 60.8794 82.9687 68.7305C82.9687 76.5816 76.5814 82.9687 68.7305 82.9687Z" fill="#129786"/>
<path d="M73.8281 65.215H72.2461V61.5236C72.2461 59.5819 70.6721 58.0079 68.7305 58.0079C66.7888 58.0079 65.2148 59.5819 65.2148 61.5236V68.7306C65.2148 70.6723 66.7888 72.2462 68.7305 72.2462H73.8281C75.7698 72.2462 77.3438 70.6723 77.3438 68.7306C77.3438 66.7889 75.7698 65.215 73.8281 65.215Z" fill="#0D5466"/>
<path d="M52.5586 40.4297C54.5002 40.4297 56.0742 38.8557 56.0742 36.9141C56.0742 34.9724 54.5002 33.3984 52.5586 33.3984C50.617 33.3984 49.043 34.9724 49.043 36.9141C49.043 38.8557 50.617 40.4297 52.5586 40.4297Z" fill="#0D5466"/>
<path d="M37.2656 55.7227C39.2073 55.7227 40.7812 54.1487 40.7812 52.207C40.7812 50.2654 39.2073 48.6914 37.2656 48.6914C35.324 48.6914 33.75 50.2654 33.75 52.207C33.75 54.1487 35.324 55.7227 37.2656 55.7227Z" fill="#129786"/>
<path d="M21.9727 40.4297C23.9143 40.4297 25.4883 38.8557 25.4883 36.9141C25.4883 34.9724 23.9143 33.3984 21.9727 33.3984C20.0311 33.3984 18.4571 34.9724 18.4571 36.9141C18.4571 38.8557 20.0311 40.4297 21.9727 40.4297Z" fill="#0D5466"/>
<path d="M21.9727 55.7227C23.9143 55.7227 25.4883 54.1487 25.4883 52.207C25.4883 50.2654 23.9143 48.6914 21.9727 48.6914C20.0311 48.6914 18.4571 50.2654 18.4571 52.207C18.4571 54.1487 20.0311 55.7227 21.9727 55.7227Z" fill="#0D5466"/>
<path d="M21.9727 71.0157C23.9143 71.0157 25.4883 69.4417 25.4883 67.5001C25.4883 65.5585 23.9143 63.9845 21.9727 63.9845C20.0311 63.9845 18.4571 65.5585 18.4571 67.5001C18.4571 69.4417 20.0311 71.0157 21.9727 71.0157Z" fill="#129786"/>
<path d="M37.2656 71.0157C39.2073 71.0157 40.7812 69.4417 40.7812 67.5001C40.7812 65.5585 39.2073 63.9845 37.2656 63.9845C35.324 63.9845 33.75 65.5585 33.75 67.5001C33.75 69.4417 35.324 71.0157 37.2656 71.0157Z" fill="#0D5466"/>
<path d="M37.2656 40.4297C39.2073 40.4297 40.7812 38.8557 40.7812 36.9141C40.7812 34.9724 39.2073 33.3984 37.2656 33.3984C35.324 33.3984 33.75 34.9724 33.75 36.9141C33.75 38.8557 35.324 40.4297 37.2656 40.4297Z" fill="#129786"/>
</g>
<defs>
<clipPath id="clip0_48_3176">
<rect width="90" height="90" fill="white"/>
</clipPath>
</defs>
</svg>
