<svg width="219" height="26" viewBox="0 0 219 26" fill="none" xmlns="http://www.w3.org/2000/svg">
<path d="M219 0C215.649 1.6188 212.215 3.1728 208.762 4.59474C177.71 17.5698 143.811 19.6864 111.554 13.6634C109.408 13.2715 107.335 12.8616 105.182 12.4032C74.1144 5.9669 41.1893 3.46259 10.4175 12.3904C6.79313 13.5475 3.2223 14.8765 0 16.7845C3.47724 15.4218 7.13159 14.6712 10.8145 14.0537C41.8558 9.75362 72.9666 14.629 103.271 21.1658C105.52 21.6664 107.689 22.1064 109.939 22.5173C143.738 28.9573 180.379 23.7417 209.526 6.12454C212.775 4.20074 215.953 2.13604 219 0Z" fill="#129786"/>
</svg>
